<svg xmlns="http://www.w3.org/2000/svg" width="500" height="500" viewBox="0 0 500 500">
  <g id="Group_1" data-name="Group 1" transform="translate(-261 -117)">
    <rect id="Rectangle_1" data-name="Rectangle 1" width="10" height="500" transform="translate(506 117)"/>
    <rect id="Rectangle_2" data-name="Rectangle 2" width="10" height="500" transform="matrix(0.995, 0.105, -0.105, 0.995, 532.159, 117.847)"/>
    <rect id="Rectangle_3" data-name="Rectangle 3" width="10" height="500" transform="matrix(0.978, 0.208, -0.208, 0.978, 558.087, 121.424)"/>
    <rect id="Rectangle_4" data-name="Rectangle 4" width="10" height="500" transform="matrix(0.951, 0.309, -0.309, 0.951, 583.499, 127.691)"/>
    <rect id="Rectangle_5" data-name="Rectangle 5" width="10" height="500" transform="matrix(0.914, 0.407, -0.407, 0.914, 608.116, 136.58)"/>
    <rect id="Rectangle_6" data-name="Rectangle 6" width="10" height="500" transform="translate(631.67 147.994) rotate(30)"/>
    <rect id="Rectangle_7" data-name="Rectangle 7" width="10" height="500" transform="matrix(0.809, 0.588, -0.588, 0.809, 653.901, 161.807)"/>
    <rect id="Rectangle_8" data-name="Rectangle 8" width="10" height="500" transform="translate(674.567 177.868) rotate(42)"/>
    <rect id="Rectangle_9" data-name="Rectangle 9" width="10" height="500" transform="translate(693.441 196.002) rotate(48)"/>
    <rect id="Rectangle_10" data-name="Rectangle 10" width="10" height="500" transform="matrix(0.588, 0.809, -0.809, 0.588, 710.315, 216.009)"/>
    <rect id="Rectangle_11" data-name="Rectangle 11" width="10" height="500" transform="translate(725.006 237.67) rotate(60)"/>
    <rect id="Rectangle_12" data-name="Rectangle 12" width="10" height="500" transform="matrix(0.407, 0.914, -0.914, 0.407, 737.353, 260.748)"/>
    <rect id="Rectangle_13" data-name="Rectangle 13" width="10" height="500" transform="matrix(0.309, 0.951, -0.951, 0.309, 747.219, 284.99)"/>
    <rect id="Rectangle_14" data-name="Rectangle 14" width="10" height="500" transform="matrix(0.208, 0.978, -0.978, 0.208, 754.497, 310.131)"/>
    <rect id="Rectangle_15" data-name="Rectangle 15" width="10" height="500" transform="matrix(0.105, 0.995, -0.995, 0.105, 759.108, 335.895)"/>
    <rect id="Rectangle_16" data-name="Rectangle 16" width="10" height="500" transform="translate(761 362) rotate(90)"/>
    <rect id="Rectangle_17" data-name="Rectangle 17" width="10" height="500" transform="translate(761 362) rotate(90)"/>
    <rect id="Rectangle_18" data-name="Rectangle 18" width="10" height="500" transform="matrix(-0.105, 0.995, -0.995, -0.105, 760.153, 388.159)"/>
    <rect id="Rectangle_19" data-name="Rectangle 19" width="10" height="500" transform="matrix(-0.208, 0.978, -0.978, -0.208, 756.576, 414.087)"/>
    <rect id="Rectangle_20" data-name="Rectangle 20" width="10" height="500" transform="matrix(-0.309, 0.951, -0.951, -0.309, 750.309, 439.499)"/>
    <rect id="Rectangle_21" data-name="Rectangle 21" width="10" height="500" transform="matrix(-0.407, 0.914, -0.914, -0.407, 741.42, 464.116)"/>
    <rect id="Rectangle_22" data-name="Rectangle 22" width="10" height="500" transform="translate(730.006 487.67) rotate(120)"/>
    <rect id="Rectangle_23" data-name="Rectangle 23" width="10" height="500" transform="matrix(-0.588, 0.809, -0.809, -0.588, 716.193, 509.901)"/>
    <rect id="Rectangle_24" data-name="Rectangle 24" width="10" height="500" transform="translate(700.132 530.567) rotate(132)"/>
    <rect id="Rectangle_25" data-name="Rectangle 25" width="10" height="500" transform="translate(681.998 549.441) rotate(138)"/>
    <rect id="Rectangle_26" data-name="Rectangle 26" width="10" height="500" transform="matrix(-0.809, 0.588, -0.588, -0.809, 661.991, 566.315)"/>
    <rect id="Rectangle_27" data-name="Rectangle 27" width="10" height="500" transform="translate(640.33 581.006) rotate(150)"/>
    <rect id="Rectangle_28" data-name="Rectangle 28" width="10" height="500" transform="matrix(-0.914, 0.407, -0.407, -0.914, 617.252, 593.353)"/>
    <rect id="Rectangle_29" data-name="Rectangle 29" width="10" height="500" transform="matrix(-0.951, 0.309, -0.309, -0.951, 593.01, 603.219)"/>
    <rect id="Rectangle_30" data-name="Rectangle 30" width="10" height="500" transform="matrix(-0.978, 0.208, -0.208, -0.978, 567.869, 610.497)"/>
    <rect id="Rectangle_31" data-name="Rectangle 31" width="10" height="500" transform="matrix(-0.995, 0.105, -0.105, -0.995, 542.105, 615.108)"/>
  </g>
</svg>
